<svg xmlns="http://www.w3.org/2000/svg" width="1024" height="1024" viewBox="0 0 1024 1024">
<defs>
 <linearGradient id="old" x1="0" y1="0" x2="0.4" y2="1"><stop offset="0" stop-color="#f3e2b8"/><stop offset="1" stop-color="#c9954a"/></linearGradient>
 <linearGradient id="new" x1="1" y1="0" x2="0.6" y2="1"><stop offset="0" stop-color="#1d3277"/><stop offset="1" stop-color="#0a1130"/></linearGradient>
 <linearGradient id="leaf" x1="0" y1="0" x2="0" y2="1"><stop offset="0" stop-color="#ffe27a"/><stop offset="1" stop-color="#c98f1c"/></linearGradient>
 <linearGradient id="stone" x1="0" y1="0" x2="1" y2="1"><stop offset="0" stop-color="#e9dfc8"/><stop offset="1" stop-color="#a99a7c"/></linearGradient>
 <linearGradient id="bronze" x1="0" y1="0" x2="1" y2="0"><stop offset="0" stop-color="#7a4a1c"/><stop offset="0.5" stop-color="#c88a3e"/><stop offset="1" stop-color="#8a5524"/></linearGradient>
 <linearGradient id="steel" x1="0" y1="0" x2="1" y2="0"><stop offset="0" stop-color="#8b97b0"/><stop offset="0.5" stop-color="#eef3ff"/><stop offset="1" stop-color="#6d7891"/></linearGradient>
 <radialGradient id="glass" cx="0.45" cy="0.4" r="0.6"><stop offset="0" stop-color="#ffffff"/><stop offset="0.35" stop-color="#fff4b0"/><stop offset="0.8" stop-color="#ffd24a" stop-opacity="0.85"/><stop offset="1" stop-color="#ffb21a" stop-opacity="0.6"/></radialGradient>
 <radialGradient id="halo" cx="0.5" cy="0.5" r="0.5"><stop offset="0" stop-color="#fff2a8" stop-opacity="0.85"/><stop offset="1" stop-color="#ffcf4a" stop-opacity="0"/></radialGradient>
 <filter id="glow" x="-30%" y="-30%" width="160%" height="160%"><feGaussianBlur stdDeviation="7" result="b"/><feMerge><feMergeNode in="b"/><feMergeNode in="SourceGraphic"/></feMerge></filter>
 <filter id="shadow" x="-10%" y="-10%" width="120%" height="125%"><feDropShadow dx="0" dy="14" stdDeviation="16" flood-color="#000" flood-opacity="0.35"/></filter>
 <clipPath id="tile"><rect x="100" y="100" width="824" height="824" rx="185"/></clipPath>
 <clipPath id="L"><polygon points="100,100 566,100 548,230 572,330 530,450 556,560 512,690 538,800 500,924 100,924"/></clipPath>
 <clipPath id="R"><polygon points="924,100 566,100 548,230 572,330 530,450 556,560 512,690 538,800 500,924 924,924"/></clipPath>
 <pattern id="grid" width="48" height="48" patternUnits="userSpaceOnUse"><path d="M48 0H0V48" fill="none" stroke="#3a5bb8" stroke-opacity="0.35" stroke-width="2"/></pattern>
 <pattern id="paper" width="9" height="9" patternUnits="userSpaceOnUse"><circle cx="2" cy="3" r="1.1" fill="#8a6a30" fill-opacity="0.18"/><circle cx="7" cy="7" r="0.9" fill="#8a6a30" fill-opacity="0.14"/></pattern>
</defs>
<g filter="url(#shadow)"><rect x="100" y="100" width="824" height="824" rx="185" fill="#000"/></g>
<g clip-path="url(#tile)">
 <g clip-path="url(#L)">
  <rect x="100" y="100" width="824" height="824" fill="url(#old)"/>
  <rect x="100" y="100" width="824" height="824" fill="url(#paper)"/>
  <polyline points="466.1,826.8 443.4,822.8 421.0,817.2 399.1,810.1 377.8,801.5 357.1,791.4 337.1,779.9 318.0,767.0 299.9,752.8 282.8,737.4 266.8,720.8 252.0,703.2 238.4,684.5 226.2,665.0 215.4,644.7 206.0,623.6 198.2,602.0 191.8,579.8 187.0,557.3 183.8,534.5 182.2,511.5 182.2,488.5 183.8,465.5 187.0,442.7 191.8,420.2 198.2,398.0 206.0,376.4 215.4,355.3 226.2,335.0 238.4,315.5 252.0,296.8 266.8,279.2 282.8,262.6 299.9,247.2 318.0,233.0 337.1,220.1 357.1,208.6 377.8,198.5 399.1,189.9 421.0,182.8 443.4,177.2 466.1,173.2" fill="none" stroke="#8a5f17" stroke-width="9" stroke-linecap="round"/>
  <ellipse cx="448.0" cy="801.3" rx="34" ry="13" transform="rotate(154 448.0 801.3)" fill="url(#leaf)" stroke="#6b4a12" stroke-width="3"/><ellipse cx="438.8" cy="844.3" rx="34" ry="13" transform="rotate(230 438.8 844.3)" fill="url(#leaf)" stroke="#6b4a12" stroke-width="3"/><ellipse cx="391.7" cy="783.5" rx="34" ry="13" transform="rotate(165 391.7 783.5)" fill="url(#leaf)" stroke="#6b4a12" stroke-width="3"/><ellipse cx="374.5" cy="824.0" rx="34" ry="13" transform="rotate(241 374.5 824.0)" fill="url(#leaf)" stroke="#6b4a12" stroke-width="3"/><ellipse cx="339.8" cy="755.3" rx="34" ry="13" transform="rotate(176 339.8 755.3)" fill="url(#leaf)" stroke="#6b4a12" stroke-width="3"/><ellipse cx="315.2" cy="791.8" rx="34" ry="13" transform="rotate(252 315.2 791.8)" fill="url(#leaf)" stroke="#6b4a12" stroke-width="3"/><ellipse cx="294.2" cy="717.8" rx="34" ry="13" transform="rotate(187 294.2 717.8)" fill="url(#leaf)" stroke="#6b4a12" stroke-width="3"/><ellipse cx="263.1" cy="748.9" rx="34" ry="13" transform="rotate(263 263.1 748.9)" fill="url(#leaf)" stroke="#6b4a12" stroke-width="3"/><ellipse cx="256.7" cy="672.2" rx="34" ry="13" transform="rotate(198 256.7 672.2)" fill="url(#leaf)" stroke="#6b4a12" stroke-width="3"/><ellipse cx="220.2" cy="696.8" rx="34" ry="13" transform="rotate(274 220.2 696.8)" fill="url(#leaf)" stroke="#6b4a12" stroke-width="3"/><ellipse cx="228.5" cy="620.3" rx="34" ry="13" transform="rotate(209 228.5 620.3)" fill="url(#leaf)" stroke="#6b4a12" stroke-width="3"/><ellipse cx="188.0" cy="637.5" rx="34" ry="13" transform="rotate(285 188.0 637.5)" fill="url(#leaf)" stroke="#6b4a12" stroke-width="3"/><ellipse cx="210.7" cy="564.0" rx="34" ry="13" transform="rotate(220 210.7 564.0)" fill="url(#leaf)" stroke="#6b4a12" stroke-width="3"/><ellipse cx="167.7" cy="573.2" rx="34" ry="13" transform="rotate(296 167.7 573.2)" fill="url(#leaf)" stroke="#6b4a12" stroke-width="3"/><ellipse cx="204.0" cy="505.4" rx="34" ry="13" transform="rotate(231 204.0 505.4)" fill="url(#leaf)" stroke="#6b4a12" stroke-width="3"/><ellipse cx="160.1" cy="506.1" rx="34" ry="13" transform="rotate(307 160.1 506.1)" fill="url(#leaf)" stroke="#6b4a12" stroke-width="3"/><ellipse cx="208.7" cy="446.5" rx="34" ry="13" transform="rotate(242 208.7 446.5)" fill="url(#leaf)" stroke="#6b4a12" stroke-width="3"/><ellipse cx="165.3" cy="438.9" rx="34" ry="13" transform="rotate(318 165.3 438.9)" fill="url(#leaf)" stroke="#6b4a12" stroke-width="3"/><ellipse cx="224.5" cy="389.6" rx="34" ry="13" transform="rotate(253 224.5 389.6)" fill="url(#leaf)" stroke="#6b4a12" stroke-width="3"/><ellipse cx="183.4" cy="373.9" rx="34" ry="13" transform="rotate(329 183.4 373.9)" fill="url(#leaf)" stroke="#6b4a12" stroke-width="3"/><ellipse cx="250.8" cy="336.8" rx="34" ry="13" transform="rotate(264 250.8 336.8)" fill="url(#leaf)" stroke="#6b4a12" stroke-width="3"/><ellipse cx="213.5" cy="313.5" rx="34" ry="13" transform="rotate(340 213.5 313.5)" fill="url(#leaf)" stroke="#6b4a12" stroke-width="3"/><ellipse cx="286.7" cy="289.9" rx="34" ry="13" transform="rotate(275 286.7 289.9)" fill="url(#leaf)" stroke="#6b4a12" stroke-width="3"/><ellipse cx="254.6" cy="259.9" rx="34" ry="13" transform="rotate(351 254.6 259.9)" fill="url(#leaf)" stroke="#6b4a12" stroke-width="3"/><ellipse cx="331.0" cy="250.8" rx="34" ry="13" transform="rotate(286 331.0 250.8)" fill="url(#leaf)" stroke="#6b4a12" stroke-width="3"/><ellipse cx="305.1" cy="215.2" rx="34" ry="13" transform="rotate(362 305.1 215.2)" fill="url(#leaf)" stroke="#6b4a12" stroke-width="3"/><ellipse cx="381.8" cy="220.9" rx="34" ry="13" transform="rotate(297 381.8 220.9)" fill="url(#leaf)" stroke="#6b4a12" stroke-width="3"/><ellipse cx="363.2" cy="181.0" rx="34" ry="13" transform="rotate(373 363.2 181.0)" fill="url(#leaf)" stroke="#6b4a12" stroke-width="3"/><ellipse cx="437.5" cy="201.1" rx="34" ry="13" transform="rotate(308 437.5 201.1)" fill="url(#leaf)" stroke="#6b4a12" stroke-width="3"/><ellipse cx="426.8" cy="158.5" rx="34" ry="13" transform="rotate(384 426.8 158.5)" fill="url(#leaf)" stroke="#6b4a12" stroke-width="3"/>
  <!-- the bulb, as carved stone -->
  <path d="M512,250 a165,165 0 0,1 124,274 Q594,590 584,640 L440,640 Q430,590 388,524 A165,165 0 0,1 512,250 Z" fill="url(#stone)" stroke="#5b4630" stroke-width="10"/>
  <path d="M430,330 l30,40 -14,36 26,38 M402,450 l40,8 18,30" fill="none" stroke="#7a6446" stroke-width="5" stroke-linecap="round"/>
  <path d="M470,300 q-60,30 -70,110" fill="none" stroke="#fff8e6" stroke-opacity="0.7" stroke-width="12" stroke-linecap="round"/>
  <rect x="432" y="640" width="160" height="34" rx="10" fill="url(#bronze)" stroke="#4a2c10" stroke-width="6"/>
  <rect x="440" y="674" width="144" height="34" rx="10" fill="url(#bronze)" stroke="#4a2c10" stroke-width="6"/>
  <path d="M462,708 L562,708 L540,742 L484,742 Z" fill="url(#bronze)" stroke="#4a2c10" stroke-width="6"/>
 </g>
 <g clip-path="url(#R)">
  <rect x="100" y="100" width="824" height="824" fill="url(#new)"/>
  <rect x="100" y="100" width="824" height="824" fill="url(#grid)"/>
  <circle cx="540" cy="420" r="300" fill="url(#halo)"/>
  <g filter="url(#glow)" fill="none" stroke="#62e8ff" stroke-width="9" stroke-linejoin="round" stroke-linecap="round">
   <path d="M478,172 L478,172 L546,172 L546,186 L614,186 L614,214 L677,214 L677,255 L733,255 L779,255 L779,306 L813,306 L813,366 L835,366 L835,431 L842,431 L842,500 L835,500 L835,569 L813,569 L813,634 L779,634 L779,694 L733,694 L733,745 L733,786 L677,786 L677,814 L614,814 L614,828 L546,828 L546,828 L478,828"/>
   <path d="M546,172 L554,172 L554,102 M614,186 L600,186 L600,229 M677,214 L700,214 L700,175 M733,255 L686,255 L686,307 M779,306 L815,306 L815,280 M813,366 L772,366 L772,384 M835,431 L903,431 L903,417 M842,500 L797,500 L797,500 M835,569 L879,569 L879,578 M813,634 L750,634 L750,606 M779,694 L815,694 L815,720 M733,745 L703,745 L703,712 M677,786 L712,786 L712,846 M614,814 L600,814 L600,771 M546,828 L551,828 L551,873" stroke-width="6"/>
  </g>
  <circle cx="554" cy="102" r="11" fill="#0e1a3a" stroke="#62e8ff" stroke-width="6"/><circle cx="600" cy="229" r="11" fill="#0e1a3a" stroke="#62e8ff" stroke-width="6"/><circle cx="700" cy="175" r="11" fill="#0e1a3a" stroke="#62e8ff" stroke-width="6"/><circle cx="686" cy="307" r="11" fill="#0e1a3a" stroke="#62e8ff" stroke-width="6"/><circle cx="815" cy="280" r="11" fill="#0e1a3a" stroke="#62e8ff" stroke-width="6"/><circle cx="772" cy="384" r="11" fill="#0e1a3a" stroke="#62e8ff" stroke-width="6"/><circle cx="903" cy="417" r="11" fill="#0e1a3a" stroke="#62e8ff" stroke-width="6"/><circle cx="797" cy="500" r="11" fill="#0e1a3a" stroke="#62e8ff" stroke-width="6"/><circle cx="879" cy="578" r="11" fill="#0e1a3a" stroke="#62e8ff" stroke-width="6"/><circle cx="750" cy="606" r="11" fill="#0e1a3a" stroke="#62e8ff" stroke-width="6"/><circle cx="815" cy="720" r="11" fill="#0e1a3a" stroke="#62e8ff" stroke-width="6"/><circle cx="703" cy="712" r="11" fill="#0e1a3a" stroke="#62e8ff" stroke-width="6"/><circle cx="712" cy="846" r="11" fill="#0e1a3a" stroke="#62e8ff" stroke-width="6"/><circle cx="600" cy="771" r="11" fill="#0e1a3a" stroke="#62e8ff" stroke-width="6"/><circle cx="551" cy="873" r="11" fill="#0e1a3a" stroke="#62e8ff" stroke-width="6"/>
  <path d="M512,250 a165,165 0 0,1 124,274 Q594,590 584,640 L440,640 Q430,590 388,524 A165,165 0 0,1 512,250 Z" fill="url(#glass)" stroke="#fff6cf" stroke-width="8"/>
  <g filter="url(#glow)"><path d="M548,640 L556,480 L570,440 L584,480 L598,440 L612,480 L604,560 L578,640" fill="none" stroke="#ff9a1a" stroke-width="10" stroke-linejoin="round"/><path d="M548,640 L556,480 L570,440 L584,480 L598,440 L612,480 L604,560 L578,640" fill="none" stroke="#fffdf0" stroke-width="4" stroke-linejoin="round"/></g>
  <rect x="432" y="640" width="160" height="34" rx="10" fill="url(#steel)" stroke="#2c3550" stroke-width="6"/>
  <rect x="440" y="674" width="144" height="34" rx="10" fill="url(#steel)" stroke="#2c3550" stroke-width="6"/>
  <path d="M462,708 L562,708 L540,742 L484,742 Z" fill="#2a2f3e" stroke="#2c3550" stroke-width="6"/>
 </g>
 <g filter="url(#glow)"><polyline points="566,100 548,230 572,330 530,450 556,560 512,690 538,800 500,924" fill="none" stroke="#fff3c4" stroke-width="7" stroke-linejoin="round"/></g>
</g>
<rect x="100" y="100" width="824" height="824" rx="185" fill="none" stroke="#000" stroke-opacity="0.18" stroke-width="4"/>
</svg>